<svg xmlns="http://www.w3.org/2000/svg" width="1211" height="293" viewBox="478.599 393 1211 293"><g data-name="Group 8559"><path d="M1536 658h61.6V462.6c0-5.867.2-11.8.6-17.8l-51.2 43.8c-1.334 1.067-2.667 1.833-4 2.3-1.334.467-2.6.7-3.8.7-2 0-3.8-.433-5.4-1.3-1.6-.867-2.8-1.9-3.6-3.1l-11.2-15.4 85.2-73.8h29v260h56.4v27.2H1536V658Z" fill="#fff" fill-rule="evenodd" data-name="Path 37326"/><path d="M1379 393c12.133 0 23.333 1.733 33.6 5.2 10.267 3.467 19.1 8.4 26.5 14.8 7.4 6.4 13.167 14.133 17.3 23.2 4.133 9.067 6.2 19.133 6.2 30.2 0 9.067-1.167 17.167-3.5 24.3-2.333 7.133-5.667 13.4-10 18.8s-9.567 9.967-15.7 13.7c-6.133 3.733-13 6.733-20.6 9 18.667 4.933 32.7 13.2 42.1 24.8 9.4 11.6 14.1 26.133 14.1 43.6 0 13.2-2.5 25.067-7.5 35.6-5 10.533-11.833 19.5-20.5 26.9-8.667 7.4-18.767 13.067-30.3 17-11.533 3.933-23.9 5.9-37.1 5.9-15.2 0-28.2-1.9-39-5.7-10.8-3.8-19.933-9.033-27.4-15.7-7.467-6.667-13.6-14.567-18.4-23.7-4.8-9.133-8.867-19.033-12.2-29.7l15.2-6.4c2.8-1.2 5.6-1.8 8.4-1.8 2.667 0 5.033.567 7.1 1.7 2.067 1.133 3.633 2.9 4.7 5.3.267.533.533 1.1.8 1.7.267.6.533 1.233.8 1.9 1.867 3.867 4.133 8.233 6.8 13.1 2.667 4.867 6.267 9.433 10.8 13.7 4.533 4.267 10.167 7.867 16.9 10.8 6.733 2.933 15.1 4.4 25.1 4.4 10 0 18.767-1.633 26.3-4.9 7.533-3.267 13.8-7.5 18.8-12.7 5-5.2 8.767-11 11.3-17.4 2.533-6.4 3.8-12.733 3.8-19 0-7.733-1.033-14.8-3.1-21.2-2.067-6.4-5.8-11.933-11.2-16.6-5.4-4.667-12.867-8.333-22.4-11-9.533-2.667-21.767-4-36.7-4v-26c12.133 0 22.5-1.267 31.1-3.8 8.6-2.533 15.633-6 21.1-10.4 5.467-4.4 9.433-9.667 11.9-15.8 2.467-6.133 3.7-12.933 3.7-20.4 0-8.267-1.3-15.467-3.9-21.6-2.6-6.133-6.167-11.2-10.7-15.2-4.533-4-9.9-7-16.1-9-6.2-2-12.9-3-20.1-3-7.2 0-13.867 1.066-20 3.197-6.133 2.131-11.567 5.095-16.3 8.89-4.733 3.796-8.7 8.325-11.9 13.586-3.2 5.262-5.6 10.956-7.2 17.083-1.067 3.863-2.667 6.66-4.8 8.39-2.133 1.732-4.867 2.598-8.2 2.598-.667 0-1.367-.033-2.1-.099a50.477 50.477 0 0 1-2.5-.295l-18.6-3.15c1.867-13.067 5.467-24.633 10.8-34.7 5.333-10.067 12.1-18.5 20.3-25.3 8.2-6.8 17.6-11.967 28.2-15.5 10.6-3.533 22.033-5.3 34.3-5.3Z" fill="#fff" fill-rule="evenodd" data-name="Path 37327"/><path d="M1176.8 660.2c0-3.467.633-6.733 1.9-9.8 1.266-3.067 3-5.733 5.2-8 2.2-2.267 4.833-4.067 7.9-5.4 3.066-1.333 6.333-2 9.8-2 3.466 0 6.733.667 9.8 2 3.066 1.333 5.733 3.133 8 5.4 2.266 2.267 4.033 4.933 5.3 8 1.266 3.067 1.9 6.333 1.9 9.8 0 3.6-.634 6.9-1.9 9.9a24.58 24.58 0 0 1-5.3 7.9c-2.267 2.267-4.934 4.033-8 5.3-3.067 1.267-6.334 1.9-9.8 1.9-3.467 0-6.734-.633-9.8-1.9-3.067-1.267-5.7-3.033-7.9-5.3s-3.934-4.9-5.2-7.9c-1.267-3-1.9-6.3-1.9-9.9Z" fill="#fff" fill-rule="evenodd" data-name="Path 37328"/><path d="M1118 411.6c0 5.067-1.6 9.233-4.8 12.5-3.2 3.267-8.6 4.9-16.2 4.9h-90l-13.2 75.2c14.933-3.2 28.733-4.8 41.4-4.8 14.933 0 28.1 2.2 39.5 6.6 11.4 4.4 20.966 10.467 28.7 18.2 7.733 7.733 13.566 16.867 17.5 27.4 3.933 10.533 5.9 22 5.9 34.4 0 15.2-2.667 28.933-8 41.2-5.334 12.267-12.634 22.767-21.9 31.5-9.267 8.733-20.167 15.433-32.7 20.1-12.534 4.667-26.067 7-40.6 7-8.4 0-16.467-.833-24.2-2.5-7.734-1.667-14.934-3.9-21.6-6.7-6.667-2.8-12.867-6-18.6-9.6-5.734-3.6-10.8-7.4-15.2-11.4l10.8-15.2c2.4-3.467 5.6-5.2 9.6-5.2 2.533 0 5.5 1.033 8.9 3.1 3.4 2.067 7.5 4.367 12.3 6.9 4.8 2.533 10.433 4.833 16.9 6.9 6.466 2.067 14.166 3.1 23.1 3.1 10 0 19-1.6 27-4.8 8-3.2 14.833-7.767 20.5-13.7 5.666-5.933 10.033-13.033 13.1-21.3 3.066-8.267 4.6-17.533 4.6-27.8 0-8.933-1.3-17-3.9-24.2-2.6-7.2-6.534-13.333-11.8-18.4-5.267-5.067-11.834-9-19.7-11.8-7.867-2.8-17.067-4.2-27.6-4.2-7.2 0-14.667.6-22.4 1.8-7.734 1.2-15.734 3.133-24 5.8L959 530l23.2-134H1118v15.6Z" fill="#fff" fill-rule="evenodd" data-name="Path 37329"/><path d="M894 399v16c0 4.533-.5 8.267-1.5 11.2s-2.034 5.4-3.1 7.4L770.8 673c-1.734 3.467-4.134 6.433-7.2 8.9-3.067 2.467-7.2 3.7-12.4 3.7h-25.4l120.4-236.4c1.733-3.333 3.5-6.4 5.3-9.2 1.8-2.8 3.833-5.467 6.1-8H708c-2.267 0-4.3-.9-6.1-2.7-1.8-1.8-2.7-3.833-2.7-6.1V399H894Z" fill="#fff" fill-rule="evenodd" data-name="Path 37330"/><path d="M495.6 658h61.6V462.6c0-5.867.2-11.8.6-17.8l-51.2 43.8c-1.334 1.067-2.667 1.833-4 2.3-1.334.467-2.6.7-3.8.7-2 0-3.8-.433-5.4-1.3-1.6-.867-2.8-1.9-3.6-3.1l-11.2-15.4 85.2-73.8h29v260h56.4v27.2H495.6V658Z" fill="#fff" fill-rule="evenodd" data-name="Path 37331"/></g></svg>