<svg xmlns="http://www.w3.org/2000/svg" width="50" height="50" viewBox="1820 40 50 50"><g data-name="Group 5511"><path d="M1866.818 44.189c-2.29-2.565-5.61-4.189-9.318-4.189h-4.313v13.276l13.631-9.087Z" fill="#0d2764" fill-rule="evenodd" data-name="Path 27777"/><path d="M1836.812 40h-4.312c-3.709 0-7.03 1.625-9.32 4.19l13.632 9.087V40Z" fill="#0d2764" fill-rule="evenodd" data-name="Path 27778"/><path d="M1870 56.814v-2.162l-3.244 2.162H1870Z" fill="#0d2764" fill-rule="evenodd" data-name="Path 27779"/><path d="M1870 75.4V73.19h-3.313l3.313 2.208Z" fill="#0d2764" fill-rule="evenodd" data-name="Path 27780"/><path d="M1820 73.191v2.208l3.312-2.208H1820Z" fill="#0d2764" fill-rule="evenodd" data-name="Path 27781"/><path d="M1853.187 90h4.313c3.694 0 7.003-1.612 9.291-4.16l-13.604-9.067V90Z" fill="#0d2764" fill-rule="evenodd" data-name="Path 27782"/><path d="M1823.207 85.84c2.289 2.548 5.598 4.16 9.293 4.16h4.312V76.772l-13.605 9.067Z" fill="#0d2764" fill-rule="evenodd" data-name="Path 27783"/><path d="M1820 54.653v2.161h3.243L1820 54.653Z" fill="#0d2764" fill-rule="evenodd" data-name="Path 27784"/><path d="M1840.222 40h-3.41v13.277l-13.632-9.087a12.461 12.461 0 0 0-2.6 4.542l12.153 8.083h-6.483l-6.25-4.159v1.997l3.244 2.162H1820v3.41h20.222V40Z" fill="#fff" fill-rule="evenodd" data-name="Path 27785"/><path d="M1849.775 90h3.412V76.773l13.604 9.067a12.466 12.466 0 0 0 2.659-4.67l-12-7.98h6.482l6.068 4.035V75.4l-3.313-2.208H1870v-3.417h-20.225V90Z" fill="#fff" fill-rule="evenodd" data-name="Path 27786"/><path d="M1853.187 56.815V55.18l14.633-9.73a12.584 12.584 0 0 0-1.002-1.262l-13.63 9.087V40h-3.413v20.225H1870v-3.41h-3.244l3.244-2.163V52.5a12.48 12.48 0 0 0-.59-3.794l-12.19 8.109h-4.033Z" fill="#fff" fill-rule="evenodd" data-name="Path 27787"/><path d="M1820 69.774v3.417h3.312L1820 75.399V77.5c0 1.279.194 2.512.551 3.674l12.007-7.983h4.254v1.476l-14.703 9.78c.33.492.703.952 1.098 1.392l13.605-9.067V90h3.41V69.774H1820Z" fill="#fff" fill-rule="evenodd" data-name="Path 27788"/><path d="M1849.775 40h-9.553v20.225H1820v9.549h20.222V90h9.553V69.774H1870v-9.549h-20.225V40Z" fill="#c20320" fill-rule="evenodd" data-name="Path 27789"/><path d="m1857.45 73.19 12 7.98c.356-1.16.55-2.392.55-3.67v-.275l-6.068-4.034h-6.482Z" fill="#c20320" fill-rule="evenodd" data-name="Path 27790"/><path d="M1853.187 55.181v1.634h4.034l12.189-8.11a12.464 12.464 0 0 0-1.59-3.254l-14.633 9.73Z" fill="#c20320" fill-rule="evenodd" data-name="Path 27791"/><path d="M1836.812 73.19h-4.254l-12.007 7.984c.36 1.174.889 2.274 1.558 3.272l14.703-9.779v-1.476Z" fill="#c20320" fill-rule="evenodd" data-name="Path 27792"/><path d="m1832.733 56.815-12.153-8.083a12.49 12.49 0 0 0-.58 3.768v.157l6.25 4.158h6.483Z" fill="#c20320" fill-rule="evenodd" data-name="Path 27793"/></g></svg>