<?xml version="1.0" encoding="UTF-8"?>
<svg id="Layer_1" data-name="Layer 1" xmlns="http://www.w3.org/2000/svg" xmlns:xlink="http://www.w3.org/1999/xlink" viewBox="0 0 244.41 100">
  <defs>
    <style>
      .cls-1 {
        fill: #fff;
      }

      .cls-2 {
        fill: #900;
      }

      .cls-3 {
        clip-path: url(#clippath-1);
      }

      .cls-4 {
        clip-path: url(#clippath);
      }

      .cls-5, .cls-6 {
        fill: none;
      }

      .cls-6 {
        stroke: #900;
        stroke-width: 2px;
      }
    </style>
    <clipPath id="clippath">
      <rect class="cls-5" x="180" y="29.75" width="64.41" height="40"/>
    </clipPath>
    <clipPath id="clippath-1">
      <rect class="cls-5" y="29.75" width="50" height="40"/>
    </clipPath>
  </defs>
  <rect class="cls-5" x="72.2" width="100" height="100"/>
  <g id="Group_8585" data-name="Group 8585">
    <g id="Group_8584" data-name="Group 8584">
      <g id="Group_8581" data-name="Group 8581">
        <g class="cls-4">
          <g id="Group_8580" data-name="Group 8580">
            <path id="Path_37343" data-name="Path 37343" class="cls-1" d="M228.9,37.86c-7.48-5.54-14.98-8.27-22.31-8.1-9.13,.19-18.08,4.81-26.59,13.71l4.58,4.38c7.31-7.65,14.76-11.6,22.15-11.76,6.4-.1,13,2.54,19.8,7.92l4.26-4.26-1.89-1.89Z"/>
            <path id="Path_37344" data-name="Path 37344" class="cls-1" d="M230.4,47.37c.21,.19,.41,.38,.62,.58l3.9-4.07-.51-.51-4,4.01Z"/>
            <path id="Path_37345" data-name="Path 37345" class="cls-1" d="M187.38,50.98l4.58,4.38c4.94-5.17,9.94-7.84,14.86-7.94,5.18-.11,10.67,2.59,16.35,8.04l4.38-4.58c-6.94-6.65-13.87-9.93-20.87-9.8-6.66,.14-13.15,3.47-19.3,9.9"/>
            <path id="Path_37346" data-name="Path 37346" class="cls-1" d="M195.34,57.97l4.57,4.39c2.39-2.5,4.74-3.79,6.99-3.83,2.43-.1,5.01,1.27,7.78,3.93l4.39-4.57c-4.03-3.86-8.17-5.83-12.3-5.69-3.99,.09-7.84,2.03-11.43,5.79"/>
            <path id="Path_37347" data-name="Path 37347" class="cls-1" d="M211.07,66.13c-.1-2.09-1.87-3.7-3.95-3.61-2-.18-3.76,1.29-3.94,3.29s1.29,3.76,3.29,3.94c.22,.02,.44,.02,.66,0,2.09,.09,3.86-1.53,3.95-3.62"/>
            <path id="Path_37348" data-name="Path 37348" class="cls-2" d="M244.41,33.36l-3.61-3.61-6.39,6.39-6.39-6.39-3.61,3.61,4.5,4.5,1.89,1.89-4.26,4.26-2.12,2.12,3.61,3.61,2.38-2.38,4.01-4.01,.51,.51,5.87,5.87,3.61-3.61-6.39-6.39,6.39-6.39Z"/>
          </g>
        </g>
      </g>
      <g id="Group_8583" data-name="Group 8583">
        <g class="cls-3">
          <g id="Group_8582" data-name="Group 8582">
            <path id="Path_37349" data-name="Path 37349" class="cls-1" d="M38.02,48.78h-3.44l-.97,.97-.97-.97h-1.51c-.02-.55-.07-1.09-.12-1.63l-1.01-1.01,.75-.75c-.21-1.12-.49-2.23-.85-3.32,1.72-.7,3.36-1.57,4.9-2.61,.26,.37,.51,.76,.74,1.15l.85-.85-6.38-6.39,.61-.61c-3.15-1.96-6.79-3-10.51-3h-.2C8.9,29.81,.01,38.73,0,49.73v.04c.01,11.04,8.96,19.98,20,19.98h.1c10.27,0,18.87-7.78,19.9-18v-4c-.13-1.24-.37-2.47-.72-3.66l-1.68,1.68c.23,.99,.37,2,.43,3.01M6.39,37.89c.25-.29,.51-.57,.78-.84,2.43-2.47,5.53-4.18,8.91-4.93-2.13,2.44-3.86,5.2-5.1,8.19-1.61-.64-3.15-1.45-4.59-2.42h0Zm5.76,4.9c2.23,.69,4.54,1.09,6.87,1.18v4.8h-7.94c.09-2.03,.45-4.04,1.07-5.97m-6.97-3.37c1.6,1.09,3.32,2,5.13,2.72-.69,2.14-1.09,4.37-1.18,6.62H1.98c.17-3.35,1.28-6.59,3.21-9.34m.28,21.02c-2.09-2.83-3.31-6.21-3.49-9.73h7.16c.1,2.43,.56,4.83,1.36,7.12-1.77,.68-3.46,1.55-5.04,2.6m1.84,2.13c-.2-.2-.4-.4-.59-.61,1.41-.92,2.92-1.69,4.49-2.3,1.24,2.81,2.9,5.41,4.93,7.72-3.34-.73-6.41-2.4-8.83-4.81m11.72,5.06c-2.49-2.48-4.51-5.4-5.96-8.6,1.94-.57,3.94-.91,5.96-.99v9.59Zm0-11.53c-2.27,.08-4.51,.46-6.68,1.12-.73-2.09-1.16-4.28-1.26-6.49h7.93v5.37Zm0-14.07c-2.1-.08-4.19-.44-6.2-1.06h0c1.46-3.43,3.56-6.54,6.2-9.16v10.22Zm14.57-4.12c-1.37,.92-2.84,1.7-4.37,2.32-1.25-2.94-2.96-5.66-5.08-8.05,3.67,.88,6.97,2.88,9.45,5.72m-12.61,18.19v-5.38h8.2c-.1,2.24-.53,4.45-1.27,6.57-2.24-.7-4.57-1.1-6.93-1.19m6.4-15.2c-2.07,.66-4.23,1.03-6.4,1.12v-10.29h.07c2.69,2.62,4.84,5.73,6.33,9.17m-6.4,3.07c2.41-.09,4.79-.51,7.09-1.24,.65,1.95,1.02,3.99,1.11,6.04h-8.2v-4.8Zm0,23.8v-9.73c2.1,.08,4.19,.44,6.2,1.06-1.48,3.23-3.54,6.16-6.08,8.65h-.12Zm3.22-.44c1.98-2.26,3.61-4.8,4.84-7.55h0c1.49,.59,2.91,1.33,4.25,2.2-2.43,2.65-5.59,4.51-9.09,5.35m10.33-6.87c-1.5-1-3.11-1.83-4.78-2.5,.82-2.32,1.29-4.76,1.39-7.22h6.89c-.19,3.51-1.4,6.89-3.49,9.72"/>
            <path id="Path_37350" data-name="Path 37350" class="cls-2" d="M50,33.36l-3.62-3.61-6.38,6.39-6.39-6.39-3,3.01-.61,.61,6.38,6.39-.85,.85-4.79,4.79-.75,.75,1.01,1.01,1.63,1.64,.97,.97,.97-.97,3.01-3.01,1.68-1.68,.72-.72,6.38,6.39,3.62-3.61-6.39-6.39,6.39-6.39Z"/>
          </g>
        </g>
      </g>
    </g>
    <path id="Path_36199" data-name="Path 36199" class="cls-6" d="M122.5,70.25V30.25"/>
  </g>
</svg>