<svg xmlns="http://www.w3.org/2000/svg" width="78.639" height="35.03" viewBox="1791.001 1005.001 78.639 35.03"><g data-name="Group 4797"><g data-name="Group 4796" transform="translate(1791 1005)" clip-path="url(&quot;#a&quot;)"><path d="m76.576 1.607-7.975 5.827-5.405 3.948v12.32l5.817 4.24 7.563 5.514c.962.721 2.063.962 2.063-1.021V2.629c0-1.743-.901-1.983-2.063-1.022" fill="#fff" fill-rule="evenodd" data-name="Path 27459"/><path d="M.221 12.216h7.543L.102 22.917a.523.523 0 0 0-.102.306v.315h8.854v-.724H1.158L8.803 12.14c.079-.113.119-.23.119-.35v-.297h-8.7v.724Z" fill="#fff" fill-rule="evenodd" data-name="Path 27460"/><path d="M11.867 11.492h.877v12.046h-.877V11.492z" fill="#fff" fill-rule="evenodd" data-name="Rectangle 982"/><path d="m22.401 20.03-4.861-8.377c-.046-.073-.092-.119-.14-.136a.587.587 0 0 0-.192-.025h-.596v12.046h.757V13.271c0-.153-.008-.312-.025-.477l4.87 8.428c.085.148.199.222.34.222h.06v-.921a3.495 3.495 0 0 0-.213-.492" fill="#fff" fill-rule="evenodd" data-name="Path 27461"/><path d="m62.386 10.992 5.75-4.2C66.902 2.838 63.2-.018 58.86 0H24.383a1.76 1.76 0 0 0-1.769 1.747v18.775c.002.007.006.012.008.018.034-.09.07-.18.107-.267.036-.089.078-.172.123-.252l4.733-8.368c.046-.074.091-.12.137-.136a.546.546 0 0 1 .187-.026h.604V23.54h-.766V13.27c0-.147.009-.303.026-.468l-4.742 8.42c-.08.148-.193.22-.34.22h-.077V25.4c.021 5.348 4.39 9.653 9.716 9.631h34.476a1.76 1.76 0 0 0 1.769-1.747v-4.676l-6.189-4.51V10.991ZM31.471 31.097h-.24v-3.213c0-.046.002-.095.008-.147l-1.484 2.635c-.025.046-.06.07-.107.07h-.042c-.044 0-.08-.024-.107-.07l-1.524-2.638c.006.052.009.102.009.15v3.213h-.238v-3.77h.187c.025 0 .045.003.06.008s.03.02.044.042L29.557 30c.027.05.05.103.07.16.01-.029.022-.057.033-.084a.82.82 0 0 1 .039-.079l1.481-2.619c.014-.022.029-.037.043-.042a.167.167 0 0 1 .059-.008h.189v3.77Zm4.443-3.544H33.93v1.524h1.652v.222H33.93v1.571h1.984v.227h-2.26v-3.77h2.26v.226Zm4.215 0h-1.985v1.524h1.652v.222h-1.652v1.571h1.985v.227h-2.26v-3.77h2.26v.226Zm4.417.006h-1.324v3.538h-.272v-3.538h-1.332v-.232h2.928v.232Zm0-6.07c-.143 1.002-.69 1.783-1.697 1.972-.609.114-2.11.068-2.11.068h-6.373v-1.42s7.015.01 7.016 0c.725 0 1.236.028 1.49-.437.389-.711-.179-1.401-.459-1.925-.89-1.668-1.803-3.319-2.75-5.044-.355-.645-.75-1.583-1.537-1.583-.52 0-.966.534-1.192.94-1.765 3.18-5.32 9.47-5.32 9.47h-1.72s3.727-6.449 5.55-9.653c.573-1.01 1.1-2.407 2.682-2.385 1.521.022 2.093 1.39 2.705 2.454.744 1.293 1.576 2.775 2.316 4.058.399.692.868 1.345 1.147 2.04.138.348.218.75.252 1.193v.252ZM59.69 32.954c-.032.222-.154.396-.377.437-.135.026-.468.016-.468.016H57.43v-.316s1.557.003 1.557 0c.161 0 .275.007.33-.097.087-.157-.039-.31-.101-.427-.197-.37-.4-.736-.61-1.12-.079-.142-.167-.35-.341-.35-.116 0-.215.118-.265.209-.392.705-1.18 2.1-1.18 2.1h-.382s.827-1.43 1.231-2.141c.128-.225.244-.534.596-.53.337.005.464.309.6.545.165.287.35.616.514.9.088.154.193.3.254.453.031.077.05.166.057.265v.056Zm.851.455c-.337-.005-.464-.309-.6-.545-.165-.286-.35-.616-.514-.9-.088-.154-.192-.299-.254-.453a.888.888 0 0 1-.056-.265v-.056c.031-.222.153-.396.376-.437.135-.026.468-.016.468-.016h1.415v.316s-1.557-.003-1.557 0c-.161 0-.275-.007-.33.097-.087.157.039.31.1.427.199.37.4.736.612 1.12.078.142.165.35.34.35.116 0 .215-.118.265-.208.391-.706 1.18-2.102 1.18-2.102h.382s-.827 1.432-1.231 2.142c-.128.225-.245.535-.596.53m3.16-2.219c.033-.222.154-.396.377-.437.135-.026.469-.016.469-.016h1.414v.316s-1.557-.003-1.557 0c-.161 0-.274-.007-.331.097-.086.157.04.31.102.427.197.37.4.736.61 1.12.08.142.167.35.341.35.116 0 .215-.118.265-.208.392-.706 1.18-2.102 1.18-2.102h.382s-.827 1.432-1.231 2.142c-.128.225-.245.535-.596.53-.337-.005-.464-.309-.6-.545-.165-.286-.35-.616-.514-.9-.088-.154-.192-.299-.254-.453a.887.887 0 0 1-.056-.265v-.056Zm-.851-.455c.337.005.464.309.6.545.165.287.35.616.514.9.089.154.193.3.254.453a.887.887 0 0 1 .057.265v.056c-.033.222-.154.396-.377.437-.135.026-.468.016-.468.016h-1.415v-.316s1.557.003 1.557 0c.161 0 .274.007.331-.097.086-.157-.04-.31-.102-.427-.197-.37-.4-.736-.61-1.12-.079-.142-.166-.35-.341-.35-.115 0-.215.118-.265.209-.392.705-1.18 2.1-1.18 2.1h-.382s.827-1.43 1.232-2.141c.127-.225.244-.534.595-.53" fill="#fff" fill-rule="evenodd" data-name="Path 27462"/></g></g><defs><clipPath id="a"><path d="M0 0h78.64v35.03H0V0z" data-name="Rectangle 983"/></clipPath></defs></svg>