<svg xmlns="http://www.w3.org/2000/svg" width="96.985" height="50.001" viewBox="50 40 96.985 50.001"><g data-name="Group 7924"><g data-name="Group 7923" transform="translate(50 40)" clip-path="url(&quot;#a&quot;)"><path d="M.919 3.004h31.308L.425 47.42c-.283.4-.425.825-.425 1.272v1.308h36.75v-3.004H4.806L36.538 2.685c.33-.47.494-.953.494-1.448V0H.92v3.004Z" fill="#fff" fill-rule="evenodd" data-name="Path 36943"/><path d="M58.968 24.028h22.06v3.003h-22.06v-3.003z" fill="#fff" fill-rule="evenodd" data-name="Rectangle 3114"/><path d="M58.968 0H84.56v3.004H58.968V0z" fill="#fff" fill-rule="evenodd" data-name="Rectangle 3115"/><path d="M46.546 8.102 46.556 50l2.9-.005-.01-41.898-2.9.005Z" fill="#fff" fill-rule="evenodd" data-name="Path 36944"/><path d="m49.444 0-2.9.005.001 3.749 2.9-.005-.001-3.75Z" fill="#fff" fill-rule="evenodd" data-name="Path 36945"/><path d="m96.975 8.097-2.9.006.01 41.896 2.9-.004-.01-41.898Z" fill="#fff" fill-rule="evenodd" data-name="Path 36946"/><path d="m96.973 0-2.9.005.001 3.749 2.9-.005-.001-3.75Z" fill="#fff" fill-rule="evenodd" data-name="Path 36947"/></g></g><defs><clipPath id="a"><path d="M0 0h96.985v50H0V0z" data-name="Rectangle 3116"/></clipPath></defs></svg>