<svg xmlns="http://www.w3.org/2000/svg" width="147.91" height="35.034" viewBox="50 1005 147.91 35.034"><g data-name="Group 6480"><g data-name="Group 6476"><g data-name="Group 3385"><path d="M197.91 1021.368v-.412c-.055-.726-.185-1.384-.413-1.953-.456-1.139-1.224-2.209-1.877-3.34-1.21-2.102-2.573-4.529-3.792-6.646-1.003-1.743-1.938-3.982-4.43-4.017-2.59-.036-3.451 2.252-4.392 3.904-2.985 5.247-9.085 15.806-9.085 15.806h2.816s5.82-10.3 8.71-15.505c.369-.666 1.101-1.54 1.952-1.54 1.29 0 1.935 1.536 2.515 2.591 1.552 2.826 3.048 5.53 4.505 8.259.458.859 1.387 1.988.75 3.154-.415.76-1.251.713-2.44.713-.001.02-11.487 0-11.487 0v2.328h10.436s2.457.074 3.454-.113c1.648-.31 2.544-1.588 2.778-3.229Z" fill="#fff" fill-rule="evenodd" data-name="Path 7808"/><g data-name="Group 3285"><g data-name="Group 3282"><path d="M139.58 1005v.488a.984.984 0 0 1-.195.571l-12.517 17.48h12.601v1.185h-14.497v-.516c0-.176.056-.343.167-.501l12.546-17.522h-12.35V1005h14.245Z" fill="#fff" fill-rule="evenodd" data-name="Path 7809"/></g><g data-name="Group 3283"><path d="M145.839 1024.724h-1.436V1005h1.436v19.724Z" fill="#fff" fill-rule="evenodd" data-name="Path 7810"/></g><g data-name="Group 3284"><path d="M162.013 1019.817c.056-.148.114-.295.174-.439.06-.144.128-.28.203-.411l7.75-13.702c.074-.121.149-.195.223-.223a.9.9 0 0 1 .307-.042h.99v19.724h-1.255v-16.811c0-.241.014-.497.042-.767l-7.765 13.787c-.13.241-.316.362-.557.362h-.224c-.232 0-.418-.12-.557-.362l-7.973-13.8c.027.269.041.53.041.78v16.811h-1.24V1005h.976c.13 0 .234.014.313.042.08.028.156.102.23.223l7.96 13.716c.139.26.26.54.362.836Z" fill="#fff" fill-rule="evenodd" data-name="Path 7811"/></g></g></g><g data-name="Group 4567"><path d="M129.74 1033.518v.16a.32.32 0 0 1-.064.186l-4.086 5.705h4.113v.387h-4.731v-.169a.28.28 0 0 1 .054-.163l4.095-5.719h-4.031v-.387h4.65Z" fill="#fff" fill-rule="evenodd" data-name="Path 27238"/><path d="M133.62 1039.956h-.47v-6.438h.47v6.438Z" fill="#fff" fill-rule="evenodd" data-name="Path 27239"/><path d="M140.735 1038.355c.018-.05.037-.097.057-.144a1.24 1.24 0 0 1 .066-.134l2.529-4.472c.025-.04.049-.064.073-.073a.283.283 0 0 1 .1-.014h.323v6.438h-.41v-5.487c0-.078.005-.162.014-.25l-2.534 4.5c-.042.078-.103.118-.182.118h-.072c-.076 0-.137-.04-.182-.119l-2.603-4.503c.01.088.014.172.014.254v5.487h-.405v-6.438h.319c.042 0 .076.005.102.014.026.009.05.034.075.073l2.598 4.477c.045.085.085.176.118.273Z" fill="#fff" fill-rule="evenodd" data-name="Path 27240"/><path d="M153.355 1036.735c0 .497-.075.948-.223 1.353a3 3 0 0 1-.628 1.038c-.27.286-.593.508-.969.664a3.227 3.227 0 0 1-1.25.234c-.453 0-.867-.078-1.243-.234a2.774 2.774 0 0 1-.969-.664 3.032 3.032 0 0 1-.63-1.038 3.872 3.872 0 0 1-.225-1.353c0-.494.075-.944.225-1.35.15-.404.36-.75.63-1.036a2.81 2.81 0 0 1 .969-.667 3.18 3.18 0 0 1 1.242-.236c.458 0 .875.078 1.251.234.376.156.7.378.97.667.27.288.478.634.627 1.039.148.405.223.855.223 1.349Zm-.482 0c0-.449-.063-.853-.187-1.21-.124-.358-.3-.661-.525-.91a2.248 2.248 0 0 0-.817-.571 2.747 2.747 0 0 0-1.06-.198c-.382 0-.732.066-1.048.198-.318.132-.59.322-.82.571a2.596 2.596 0 0 0-.532.91 3.629 3.629 0 0 0-.189 1.21c0 .452.063.856.19 1.212a2.6 2.6 0 0 0 .531.908c.23.249.502.439.82.568.316.13.666.196 1.048.196.388 0 .741-.065 1.06-.196.318-.13.59-.32.817-.568.225-.249.4-.552.525-.908a3.68 3.68 0 0 0 .187-1.212Z" fill="#fff" fill-rule="evenodd" data-name="Path 27241"/><path d="M163.03 1039.65c.222 0 .424-.01.606-.033s.351-.057.507-.103c.157-.045.305-.1.446-.166.141-.065.283-.139.425-.22v-1.734h-1.237a.118.118 0 0 1-.084-.032.095.095 0 0 1-.034-.072v-.255h1.779v2.288a4.21 4.21 0 0 1-.501.3 3.298 3.298 0 0 1-.555.221c-.197.06-.41.105-.637.137a5.352 5.352 0 0 1-.746.048c-.464 0-.888-.079-1.271-.235a2.817 2.817 0 0 1-.987-.664 2.992 2.992 0 0 1-.64-1.04 3.86 3.86 0 0 1-.227-1.355c0-.497.076-.948.227-1.354.152-.404.367-.75.646-1.037a2.857 2.857 0 0 1 1.017-.664 3.65 3.65 0 0 1 1.34-.234c.245 0 .472.016.68.05.208.033.4.082.58.147.179.066.346.146.5.242.155.095.303.205.446.33l-.123.2c-.027.045-.065.068-.113.068a.17.17 0 0 1-.078-.018.961.961 0 0 1-.198-.128 2.11 2.11 0 0 0-.35-.209 2.908 2.908 0 0 0-.553-.196 3.262 3.262 0 0 0-.805-.086c-.418 0-.796.067-1.133.2a2.403 2.403 0 0 0-.862.573 2.54 2.54 0 0 0-.55.91c-.129.358-.194.76-.194 1.206 0 .455.066.863.196 1.224.13.36.313.666.548.916.235.25.517.442.846.576.33.133.693.2 1.09.2Z" fill="#fff" fill-rule="evenodd" data-name="Path 27242"/><path d="M169.495 1037.044v2.912h-.464v-6.438h1.642c.743 0 1.299.143 1.665.43.367.287.551.708.551 1.263 0 .245-.042.47-.127.673a1.584 1.584 0 0 1-.366.535c-.16.153-.351.279-.576.377a2.544 2.544 0 0 1-.76.193.739.739 0 0 1 .196.183l2.215 2.784h-.404a.267.267 0 0 1-.125-.028.32.32 0 0 1-.103-.09l-2.06-2.612a.456.456 0 0 0-.167-.14.696.696 0 0 0-.275-.042h-.842Zm0-.346h1.12c.285 0 .54-.034.766-.102.226-.068.417-.166.574-.293.156-.128.274-.28.357-.46.081-.179.122-.38.122-.605 0-.458-.15-.798-.45-1.019-.3-.221-.737-.332-1.31-.332h-1.179v2.811Z" fill="#fff" fill-rule="evenodd" data-name="Path 27243"/><path d="M182.002 1036.735c0 .497-.075.948-.223 1.353-.149.405-.358.751-.628 1.038-.27.286-.593.508-.97.664a3.228 3.228 0 0 1-1.25.234c-.452 0-.866-.078-1.242-.234a2.774 2.774 0 0 1-.969-.664 3.031 3.031 0 0 1-.63-1.038 3.872 3.872 0 0 1-.226-1.353c0-.494.076-.944.226-1.35.15-.404.36-.75.63-1.036a2.81 2.81 0 0 1 .969-.667 3.18 3.18 0 0 1 1.242-.236c.458 0 .875.078 1.25.234.377.156.7.378.97.667.27.288.48.634.628 1.039.148.405.223.855.223 1.349Zm-.483 0c0-.449-.062-.853-.186-1.21a2.61 2.61 0 0 0-.525-.91 2.248 2.248 0 0 0-.817-.571 2.747 2.747 0 0 0-1.06-.198c-.382 0-.732.066-1.049.198-.317.132-.59.322-.818.571-.23.249-.407.552-.533.91-.126.357-.19.761-.19 1.21 0 .452.064.856.19 1.212s.303.66.533.908c.228.249.501.439.818.568.317.13.667.196 1.049.196.388 0 .741-.065 1.06-.196.318-.13.59-.32.817-.568.225-.249.4-.552.525-.908.124-.356.186-.76.186-1.212Z" fill="#fff" fill-rule="evenodd" data-name="Path 27244"/><path d="M187.715 1039.624c.31 0 .586-.054.83-.162.245-.107.452-.257.622-.448.17-.19.3-.416.389-.676.09-.259.134-.539.134-.839v-3.98h.464v3.98c0 .355-.056.687-.168.994a2.373 2.373 0 0 1-.485.805c-.21.23-.467.41-.769.54-.301.13-.64.196-1.017.196-.376 0-.715-.066-1.016-.197a2.231 2.231 0 0 1-.77-.539 2.374 2.374 0 0 1-.484-.805 2.881 2.881 0 0 1-.168-.994v-3.98h.469v3.976c0 .3.044.58.134.84.09.258.218.484.387.674.168.192.374.342.618.45.244.11.521.165.83.165Z" fill="#fff" fill-rule="evenodd" data-name="Path 27245"/><path d="M194.43 1037.362v2.594h-.464v-6.438h1.66c.755 0 1.325.166 1.709.497.383.33.575.802.575 1.415 0 .281-.052.54-.157.777-.105.236-.255.44-.452.612a2.11 2.11 0 0 1-.72.4 2.96 2.96 0 0 1-.955.143h-1.196Zm0-.373h1.196c.285 0 .54-.04.765-.117.224-.08.414-.189.57-.328.157-.14.277-.304.36-.494a1.52 1.52 0 0 0 .125-.62c0-.495-.152-.876-.457-1.143-.305-.266-.76-.4-1.363-.4h-1.196v3.102Z" fill="#fff" fill-rule="evenodd" data-name="Path 27246"/></g></g><g data-name="Group 6479"><g data-name="Group 6478" transform="translate(50 1005)" clip-path="url(&quot;#a&quot;)"><path d="M71.602 19.717v8.534c-2.32 3.959-3.962 6.756-3.962 6.756h-5.197s4.472-7.448 9.159-15.29" fill="#fff" fill-rule="evenodd" data-name="Path 36299"/><path d="M71.602 6.782v8.534c-2.75 4.6-5.573 9.336-7.61 12.781-1.736 2.936-3.327 7-8.108 6.936-4.599-.062-6.325-4.04-8.178-7.136-2.248-3.759-4.762-8.07-6.997-11.801-1.206-2.011-2.625-3.912-3.465-5.934-.42-1.01-.661-2.18-.762-3.468V5.96c.432-2.913 2.085-5.184 5.127-5.734 1.84-.333 6.375-.2 6.375-.2h19.264V4.16s-21.202-.035-21.204 0c-2.193 0-3.737-.084-4.504 1.267-1.175 2.07.54 4.077 1.386 5.6 2.687 4.849 5.45 9.652 8.315 14.67 1.07 1.874 2.261 4.6 4.643 4.6 1.57 0 2.921-1.55 3.603-2.733 3.248-5.63 8.502-14.616 12.115-20.782" fill="#fff" fill-rule="evenodd" data-name="Path 36300"/><path d="M44.28 29.073v-.734c-.1-1.288-.342-2.457-.762-3.467-.84-2.023-2.26-3.923-3.464-5.935-2.236-3.73-4.751-8.042-7-11.802C31.203 4.04 29.476.063 24.878.001 20.096-.063 18.505 4 16.77 6.935 11.26 16.254 0 35.007 0 35.007h5.198S15.94 16.714 21.274 7.469c.682-1.182 2.034-2.734 3.603-2.734 2.381 0 3.573 2.727 4.643 4.601 2.866 5.018 5.627 9.821 8.315 14.67.846 1.524 2.562 3.53 1.386 5.6-.766 1.35-2.31 1.268-4.504 1.268-.003.034-21.204 0-21.204 0v4.133h19.264s4.536.132 6.375-.2c3.042-.55 4.696-2.82 5.128-5.734" fill="#fff" fill-rule="evenodd" data-name="Path 36301"/></g></g></g><defs><clipPath id="a"><path d="M0 0h71.602v35.033H0V0z" data-name="Rectangle 2673"/></clipPath></defs></svg>