<svg xmlns="http://www.w3.org/2000/svg" width="103.107" height="35.03"><g data-name="Group 5944" clip-path="url(&quot;#a&quot;)"><path d="M25.945 0v.866c0 .347-.116.685-.347 1.015L3.368 32.926h22.38v2.104H0v-.916c0-.314.1-.61.297-.89l22.28-31.12H.645V0h25.3Z" fill="#fff" fill-rule="evenodd" data-name="Path 28412"/><path d="M56.7 0v2.154H44.396V35.03H41.87V2.154H29.493V0H56.7Z" fill="#fff" fill-rule="evenodd" data-name="Path 28413"/><path d="M60.248 16.834h15.455v2.104H60.248v-2.104z" fill="#fff" fill-rule="evenodd" data-name="Rectangle 2274"/><path d="M60.248 0h17.93v2.105h-17.93V0z" fill="#fff" fill-rule="evenodd" data-name="Rectangle 2275"/><path d="M91.05 19.88a4.016 4.016 0 0 0-1.064-.99c1.535-.166 2.913-.517 4.134-1.053 1.222-.536 2.265-1.221 3.132-2.055a8.597 8.597 0 0 0 1.993-2.909c.462-1.105.693-2.326.693-3.663 0-3.021-.999-5.31-2.996-6.87C94.945.78 91.925 0 87.882 0h-6.157v2.005h6.157c3.12 0 5.495.603 7.13 1.807 1.633 1.206 2.45 3.054 2.45 5.546 0 1.222-.222 2.32-.668 3.293a6.895 6.895 0 0 1-1.944 2.5c-.85.693-1.889 1.225-3.119 1.597-1.23.371-2.62.557-4.17.557h-5.836v1.88h4.325c.676 0 1.176.076 1.497.224.323.148.623.405.904.768l11.215 14.21c.181.23.367.396.557.495.19.098.417.148.68.148h2.204L91.05 19.88Z" fill="#fff" fill-rule="evenodd" data-name="Path 28414"/></g><defs><clipPath id="a"><path d="M0 0h103.107v35.03H0V0z" data-name="Rectangle 2276"/></clipPath></defs></svg>